<svg xmlns="http://www.w3.org/2000/svg" width="81.546" height="49.112"><path d="M41.343 0L29.581 16.958l-5.374.262-.355 1.066 5.209.085-5.565 7.242-3.354-1.854c3.254-5.939 5.92-16.34 5.92-16.34l1.144-1.33-7.15.178s-2.269 10.89-5.124 15.9C10.098 20.433-.001 20.32-.001 20.32s10.764 1.63 14.044 3a10.715 10.715 0 01-10.419 5.564l.177.7s9.391 2.7 15.1-4.413l3.533 2.117-2.381 3.8 3-3.532 3.006 2.736a74.165 74.165 0 00-16.7 18.813s6.36-8.027 18.991-16.7c2.384 1.623 7.945 10.512 7.945 10.512l2.126-16.873 8.563-4.236-5.65 7.242h5.92l5.566-6.624 1.322 6.624h11.833l3.092-4.862 6.54.093v4.769h5.483l-.776-20.8a2.784 2.784 0 011.227-2.171h-6.635L60.572 28.34l-2.895-10.775 9.538-2.829-7.59.356s4.1-5.751 6.09-8.038a6 6 0 011.161-.8l-6.811-.178-4.947 6.895-.888-5.92 1.414-.882-8.216.085 2.388 9.546-10.334.513zm-5.379 11.176l-.75 5.4-3.493.093zm39.651 2.117v6.709h-4.067zm-24.039 4A68.335 68.335 0 0038.9 22.171l.464-4.468zm-16.525.634l-.82 6.779-6.005 3.888-3.888-2.628 6.271-7.986zM33.66 28.964l-.579 4.947-2.428-3.223z" fill="#00599c"/></svg>